<?xml version="1.0" standalone="no"?><!DOCTYPE svg PUBLIC "-//W3C//DTD SVG 1.1//EN" "http://www.w3.org/Graphics/SVG/1.1/DTD/svg11.dtd"><svg t="1504607492851" class="icon" style="" viewBox="0 0 1024 1024" version="1.1" xmlns="http://www.w3.org/2000/svg" p-id="3966" xmlns:xlink="http://www.w3.org/1999/xlink" width="400" height="400"><defs><style type="text/css"></style></defs><path d="M999.653636 558.04983l-300.719742 229.17161-355.628774 229.491593L342.985137 1016.905024c-22.526782 14.591211-51.261229 5.951678-64.252526-19.262959-4.479758-8.639533-6.463651-18.111021-6.271661-27.518512L272.46095 511.972321 272.46095 53.373115C272.332957 44.157613 270.029082 43.133668 278.732611 26.302578S320.778338-7.807578 342.985137 7.039619l0.063997 0.063997 355.820763 229.619586 301.103722 229.427597 0.447976 0.319983c22.526782 14.463218 30.206367 46.653478 17.215069 71.804118C1013.220903 546.850436 1006.885245 553.506076 999.653636 558.04983z" p-id="3967"></path><path d="M120.021191 1023.944643 18.010706 1023.944643C8.091243 1023.944643 0.027679 1015.817082 0.027679 1005.961615L0.027679 17.983028C0.027679 8.127561 8.091243 0 18.010706 0l102.010485 0C129.940655 0 138.004219 8.127561 138.004219 17.983028l0 987.978587C138.004219 1015.817082 129.940655 1023.944643 120.021191 1023.944643z" p-id="3968"></path></svg>