<?xml version="1.0" standalone="no"?><!DOCTYPE svg PUBLIC "-//W3C//DTD SVG 1.1//EN" "http://www.w3.org/Graphics/SVG/1.1/DTD/svg11.dtd"><svg t="1504608518883" class="icon" style="" viewBox="0 0 1024 1024" version="1.1" xmlns="http://www.w3.org/2000/svg" p-id="4960" xmlns:xlink="http://www.w3.org/1999/xlink" width="260" height="260"><defs><style type="text/css"></style></defs><path d="M484.736 305.792c-36.544 0-66.368 30.272-66.368 67.52 0 37.184 29.824 67.456 66.368 67.456 36.608 0 66.368-30.272 66.368-67.456 0-37.248-29.76-67.52-66.368-67.52z m277.952-212.992A461.376 461.376 0 0 1 484.736 0a461.376 461.376 0 0 1-277.888 92.8A333.12 333.12 0 0 1 96 72.64v444.032c0 41.216 14.464 91.776 41.792 146.304 28.416 56.704 70.784 117.76 122.624 176.448a1107.2 1107.2 0 0 0 151.424 142.08c22.656 17.408 41.6 30.144 56.32 39.232 7.36 4.48 16.512 4.352 23.68-0.256 15.04-9.6 34.176-22.848 57.088-40.576a1231.552 1231.552 0 0 0 155.136-144.192c53.76-59.456 97.536-120.512 126.72-176.64 27.968-53.696 42.752-102.912 42.752-142.4V72.64a333.184 333.184 0 0 1-110.848 20.16zM526.656 552.96v193.792a42.24 42.24 0 0 1-41.92 42.624 42.24 42.24 0 0 1-41.856-42.624V553.024a184.384 184.384 0 0 1-139.712-179.712c0-101.888 81.472-184.768 181.568-184.768 100.16 0 181.632 82.88 181.632 184.768A184.384 184.384 0 0 1 526.656 552.96z" p-id="4961"></path></svg>